<?xml version="1.0" encoding="UTF-8"?>
<svg version="1.1" xmlns="http://www.w3.org/2000/svg" width="500" height="500">
<path d="M0 0 C165 0 330 0 500 0 C500 165 500 330 500 500 C335 500 170 500 0 500 C0 335 0 170 0 0 Z " fill="#F0F0F0" transform="translate(0,0)"/>
<path d="M0 0 C1.21429688 -0.01417969 2.42859375 -0.02835937 3.6796875 -0.04296875 C7.02218269 0.1806222 9.09525478 0.86606884 12.125 2.1875 C14.5570759 2.63002057 14.5570759 2.63002057 16.9375 2.8125 C18.319375 2.93625 19.70125 3.06 21.125 3.1875 C21.125 9.1275 21.125 15.0675 21.125 21.1875 C18.94174759 19.00424759 18.18315786 17.24341874 16.9375 14.4375 C14.53364345 9.50852411 11.74870522 6.15675146 7.125 3.1875 C2.24888985 1.56212995 -3.10622125 1.21236442 -8.015625 2.94140625 C-10.50649533 4.27580107 -12.51541929 5.74974957 -14.3125 7.9375 C-15.84678534 14.07464137 -15.24421564 18.76882799 -12.17578125 24.19921875 C-7.64550829 31.12387022 -1.86105323 35.92397637 4.64013672 40.8984375 C10.81270452 45.64127548 16.48942647 50.8251664 22.125 56.1875 C22.81078125 56.83203125 23.4965625 57.4765625 24.203125 58.140625 C25.55646864 59.44337635 26.85086205 60.80718389 28.125 62.1875 C28.125 62.8475 28.125 63.5075 28.125 64.1875 C42.315 64.1875 56.505 64.1875 71.125 64.1875 C71.125 67.4875 71.125 70.7875 71.125 74.1875 C70.568125 73.40375 70.01125 72.62 69.4375 71.8125 C65.71147558 67.58295877 62.37080619 67.15063899 56.9453125 66.640625 C55.59203857 66.51155762 55.59203857 66.51155762 54.21142578 66.37988281 C53.52290527 66.31639648 52.83438477 66.25291016 52.125 66.1875 C52.19199405 73.78669512 52.281799 81.38537553 52.38745117 88.98413086 C52.42070111 91.56902954 52.44873277 94.15400084 52.47143555 96.73901367 C52.50497927 100.45523009 52.55729728 104.17078101 52.61328125 107.88671875 C52.61967117 109.04209641 52.6260611 110.19747406 52.63264465 111.38786316 C52.65243881 112.46860611 52.67223297 113.54934906 52.69262695 114.6628418 C52.70373001 115.61104294 52.71483307 116.55924408 52.72627258 117.53617859 C53.03962035 120.76534277 53.03962035 120.76534277 56.125 125.1875 C51.505 125.1875 46.885 125.1875 42.125 125.1875 C42.125 124.5275 42.125 123.8675 42.125 123.1875 C42.785 123.1875 43.445 123.1875 44.125 123.1875 C44.455 104.3775 44.785 85.5675 45.125 66.1875 C34.95723972 65.92847068 34.95723972 65.92847068 32.125 69.1875 C32.62 70.074375 33.115 70.96125 33.625 71.875 C36.90753483 79.5967724 35.86512211 89.01495282 33.1640625 96.77734375 C27.92723827 108.92441348 20.97517711 114.79888828 9.125 120.1875 C10.22457031 120.6 11.32414062 121.0125 12.45703125 121.4375 C21.62121602 124.97480885 29.60173596 128.71116267 37.125 135.1875 C37.90101562 135.85265625 38.67703125 136.5178125 39.4765625 137.203125 C58.03372316 154.42110912 66.58064928 181.79508063 73.6159668 205.37719727 C74.38701769 208.54133426 74.38701769 208.54133426 76.125 211.1875 C77.74561336 206.23044356 79.36285705 201.27230357 80.97729492 196.31323242 C81.52427371 194.63456237 82.0720935 192.95616606 82.62084961 191.27807617 C85.49667662 182.481894 88.33395745 173.67486053 91 164.8125 C91.31725288 163.77960594 91.31725288 163.77960594 91.64091492 162.72584534 C93.13461596 157.68267964 93.59945505 153.40650558 93.125 148.1875 C92.135 147.8575 91.145 147.5275 90.125 147.1875 C90.125 146.8575 90.125 146.5275 90.125 146.1875 C94.745 146.1875 99.365 146.1875 104.125 146.1875 C103.361875 146.93 102.59875 147.6725 101.8125 148.4375 C98.0694878 152.267559 95.8942766 155.18280699 94.43359375 160.359375 C94.13332275 161.40150146 93.83305176 162.44362793 93.52368164 163.51733398 C93.2064917 164.64598877 92.88930176 165.77464355 92.5625 166.9375 C91.86432217 169.3613532 91.16368918 171.7845002 90.4609375 174.20703125 C90.27711014 174.84258438 90.09328278 175.47813751 89.90388489 176.13294983 C87.4103352 184.71301644 84.7049237 193.22771221 82.01779175 201.74865723 C81.58878518 203.10924092 81.16014217 204.46993932 80.73190308 205.83076477 C80.16575671 207.6290438 79.59771472 209.42672572 79.02954102 211.22436523 C78.73104248 212.20219971 78.43254395 213.18003418 78.125 214.1875 C77.88587891 214.87489258 77.64675781 215.56228516 77.40039062 216.27050781 C77.0118983 218.97480012 77.7645923 220.75129795 78.71484375 223.30078125 C79.08311279 224.294729 79.45138184 225.28867676 79.83081055 226.31274414 C80.23726807 227.36453857 80.64372559 228.41633301 81.0625 229.5 C81.47346924 230.57564209 81.88443848 231.65128418 82.30786133 232.75952148 C86.68385262 243.97662622 91.37084678 255.63693174 100.125 264.1875 C101.115 264.5175 102.105 264.8475 103.125 265.1875 C102.80059433 264.61350967 102.47618866 264.03951935 102.14195251 263.44813538 C101.07498625 261.0763219 100.869268 259.59449647 100.85375977 257.01733398 C100.84357315 256.20646835 100.83338654 255.39560272 100.82289124 254.56016541 C100.82075119 253.69339676 100.81861115 252.82662811 100.81640625 251.93359375 C100.79125852 250.09179354 100.76586032 248.24999674 100.74023438 246.40820312 C100.71142903 243.50920402 100.68740493 240.61026375 100.66870117 237.71118164 C100.64710081 234.91001802 100.60768043 232.10952628 100.56640625 229.30859375 C100.56623253 228.00540443 100.56623253 228.00540443 100.5660553 226.67588806 C100.55271652 225.86817459 100.53937775 225.06046112 100.52563477 224.22827148 C100.52056412 223.51863754 100.51549347 222.8090036 100.51026917 222.0778656 C100.01770567 219.66104855 98.89752626 218.83683712 97.125 217.1875 C97.125 216.5275 97.125 215.8675 97.125 215.1875 C101.745 215.1875 106.365 215.1875 111.125 215.1875 C110.465 216.5075 109.805 217.8275 109.125 219.1875 C108.90811977 222.14909983 108.79707451 225.0141111 108.7890625 227.9765625 C108.7824057 228.83502777 108.7757489 229.69349304 108.76889038 230.57797241 C108.7587736 232.39522159 108.75407306 234.21250785 108.75439453 236.02978516 C108.75004782 238.78221738 108.71379295 241.53301041 108.67578125 244.28515625 C108.35805829 257.31161922 108.35805829 257.31161922 113.125 269.1875 C118.83279528 273.96341033 123.93276901 274.80849326 131.125 274.1875 C134.33353035 273.55574286 137.24038522 272.74792739 140.125 271.1875 C141.69723394 268.88214365 141.69723394 268.88214365 142.125 266.1875 C142.45967285 265.49599854 142.7943457 264.80449707 143.13916016 264.09204102 C144.5053164 260.06698881 144.44970063 256.31365957 144.4609375 252.08984375 C144.4675943 251.21856339 144.4742511 250.34728302 144.48110962 249.44960022 C144.49120786 247.61315007 144.49592752 245.77666343 144.49560547 243.94018555 C144.49999104 241.13073675 144.53637319 238.32284429 144.57421875 235.51367188 C144.58008503 233.72656786 144.58405569 231.9394564 144.5859375 230.15234375 C144.60749405 228.89441261 144.60749405 228.89441261 144.62948608 227.61106873 C144.63994632 222.7673082 144.63994632 222.7673082 142.09619141 218.75219727 C141.44569824 218.23584717 140.79520508 217.71949707 140.125 217.1875 C140.125 216.5275 140.125 215.8675 140.125 215.1875 C143.425 215.1875 146.725 215.1875 150.125 215.1875 C149.465 216.5075 148.805 217.8275 148.125 219.1875 C147.92275394 222.157477 147.82410159 225.04126215 147.81640625 228.01171875 C147.79123212 229.78060205 147.76583432 231.54948218 147.74023438 233.31835938 C147.71159775 236.09170604 147.68756805 238.86499728 147.66870117 241.63842773 C147.64686939 244.32565659 147.6074051 247.01222348 147.56640625 249.69921875 C147.56629044 250.51517014 147.56617462 251.33112152 147.5660553 252.17179871 C147.4474565 259.17136634 146.28713772 265.57017539 141.75 271.0625 C134.38960753 277.02091295 127.43994651 278.04885569 118.125 277.1875 C101.23120864 273.18697309 88.28572363 262.07743138 79.30786133 247.61816406 C78.22714963 245.81865565 77.17027276 244.00779445 76.125 242.1875 C75.53074219 241.15496094 74.93648438 240.12242187 74.32421875 239.05859375 C67.17022515 225.65513448 62.66497287 210.90070133 57.90234375 196.5168457 C56.30424298 191.72806446 54.65074403 186.95833164 53 182.1875 C52.46052734 180.61548828 52.46052734 180.61548828 51.91015625 179.01171875 C51.56597656 178.01785156 51.22179687 177.02398437 50.8671875 176 C50.5563623 175.09894531 50.24553711 174.19789063 49.92529297 173.26953125 C49.30330481 171.23036308 49.30330481 171.23036308 48.125 170.1875 C47.65658691 171.73691284 47.65658691 171.73691284 47.17871094 173.31762695 C46.003894 177.20072621 44.82502715 181.0825866 43.64501953 184.96411133 C43.13775287 186.63468167 42.63154151 188.30557287 42.12646484 189.97680664 C39.58848472 198.37224385 37.03641644 206.72452909 33.95605469 214.94067383 C32.80463779 218.05362615 31.83184121 221.19692028 30.875 224.375 C30.53984375 225.48230469 30.2046875 226.58960938 29.859375 227.73046875 C29.49585937 228.94669922 29.49585937 228.94669922 29.125 230.1875 C28.465 230.1875 27.805 230.1875 27.125 230.1875 C26.85017792 229.40426361 26.57535583 228.62102722 26.29220581 227.8140564 C23.67939353 220.37035467 21.06190938 212.92831523 18.43939018 205.48802757 C17.09184931 201.66444421 15.74601428 197.84027957 14.40429688 194.01464844 C13.10522048 190.31081244 11.80137749 186.60868433 10.49444962 182.90761185 C10.00092584 181.50748049 9.50901585 180.10677902 9.01888657 178.70545578 C3.34731095 161.50896662 3.34731095 161.50896662 -5.875 146.1875 C1.055 146.1875 7.985 146.1875 15.125 146.1875 C14.465 147.8375 13.805 149.4875 13.125 151.1875 C13.61872178 163.03682279 19.49605852 175.31691566 23.44384766 186.41992188 C24.25843376 188.71122281 25.06897131 191.0039263 25.87890625 193.296875 C26.40081053 194.77091519 26.9229377 196.24487649 27.4453125 197.71875 C27.80473434 198.73443054 27.80473434 198.73443054 28.17141724 199.77062988 C29.41822699 203.27401108 30.71586965 206.74608136 32.125 210.1875 C33.46447092 207.6144145 34.56886257 205.09673891 35.46948242 202.34033203 C35.71280807 201.59921173 35.95613373 200.85809143 36.20683289 200.09451294 C36.46213272 199.30277679 36.71743256 198.51104065 36.98046875 197.6953125 C37.24636307 196.87175262 37.51225739 196.04819275 37.78620911 195.19967651 C38.34538817 193.46041772 38.90252793 191.72050213 39.45776367 189.97998047 C40.30844449 187.32515653 41.17657386 184.67643265 42.04492188 182.02734375 C42.58703293 180.33368357 43.12808394 178.63968365 43.66796875 176.9453125 C43.92934128 176.15762482 44.19071381 175.36993713 44.46000671 174.55838013 C47.02701815 166.35444482 44.95224149 161.14534273 41.12695312 153.58959961 C38.13161131 147.87579 34.44957433 142.97542158 30.125 138.1875 C29.5371875 137.53007812 28.949375 136.87265625 28.34375 136.1953125 C19.34104667 126.66063124 8.19837336 122.32806618 -4.875 121.6875 C-15.47785025 121.15617677 -25.05719251 118.60925116 -32.875 111.1875 C-33.50148438 110.60097656 -34.12796875 110.01445312 -34.7734375 109.41015625 C-42.33231309 101.61207574 -44.53509512 92.71236413 -44.41381836 82.04125977 C-44.01657017 73.7169688 -41.10500888 67.99350843 -35.125 62.3125 C-26.8846402 55.80614515 -19.25755503 54.50844451 -8.875 54.1875 C-11.37011702 55.51099686 -13.33180049 56.2929155 -16.125 56.9375 C-24.5950132 59.76083773 -29.70490585 65.45087795 -33.875 73.1875 C-37.41908122 81.40332464 -37.03213033 91.72064796 -34.25 100.125 C-30.37375045 109.29071509 -24.96299329 113.40213963 -15.875 117.1875 C-7.80101462 119.87882846 2.33745449 119.06573998 9.9765625 115.44921875 C16.5728243 111.57541409 21.19893731 106.86157656 23.703125 99.484375 C25.30737859 90.75010543 25.59984836 80.3632796 20.94140625 72.5859375 C17.03513551 67.42798001 12.6495595 62.79693579 8.125 58.1875 C7.46886719 57.50429687 6.81273437 56.82109375 6.13671875 56.1171875 C3.27147835 53.17949274 0.29180287 50.43317651 -2.8125 47.75 C-19.83034788 32.93755988 -19.83034788 32.93755988 -21.3828125 22.90625 C-21.61421146 16.18025343 -21.15351 11.45335846 -16.875 6.1875 C-11.44714214 1.47513249 -7.25231746 0.03833149 0 0 Z " fill="#292929" transform="translate(72.875,67.8125)"/>
<path d="M0 0 C3.95807715 -0.11761144 7.91569621 -0.18771882 11.875 -0.25 C13.53789062 -0.30027344 13.53789062 -0.30027344 15.234375 -0.3515625 C23.69146311 -0.45105765 30.97171373 0.64309478 37.625 6.1875 C39.87576458 10.79133665 39.90377645 15.11356397 38.375 19.99609375 C35.92138594 25.08953365 32.12530317 26.99715095 27 29 C27.70125 29.45375 28.4025 29.9075 29.125 30.375 C35.56401636 36.2541019 38.7493197 44.32640664 41.82421875 52.3359375 C43.61020568 56.38259228 45.3100536 58.54003574 49 61 C48 62 48 62 44.75 62.3125 C40.17059025 61.93088252 39.17904316 61.28127885 36 58 C34.20875889 54.62665687 32.82599282 51.11733241 31.4375 47.5625 C30.69375269 45.68579047 29.94264701 43.81197751 29.18359375 41.94140625 C28.69717407 40.69919312 28.69717407 40.69919312 28.20092773 39.43188477 C26.80985941 36.39611219 26.80985941 36.39611219 23 32 C18.71 31.34 14.42 30.68 10 30 C10.33 39.57 10.66 49.14 11 59 C11.66 59 12.32 59 13 59 C13 59.66 13 60.32 13 61 C8.38 61 3.76 61 -1 61 C-0.67 60.34 -0.34 59.68 0 59 C0.66 59 1.32 59 2 59 C2.05066736 51.24042546 2.08571984 43.48089352 2.10986328 35.72119141 C2.11992719 33.08087571 2.13357952 30.44057117 2.15087891 27.80029297 C2.17510971 24.00745897 2.18647923 20.21477221 2.1953125 16.421875 C2.20563507 15.23946228 2.21595764 14.05704956 2.22659302 12.83880615 C2.22674408 11.73796692 2.22689514 10.63712769 2.22705078 9.50292969 C2.231492 8.53474304 2.23593323 7.5665564 2.24050903 6.56903076 C1.9915915 3.91018338 1.35558554 2.27725613 0 0 Z " fill="#343434" transform="translate(231,283)"/>
<path d="M0 0 C3.79139846 -0.11771717 7.58231735 -0.18775198 11.375 -0.25 C12.96634766 -0.30027344 12.96634766 -0.30027344 14.58984375 -0.3515625 C22.38722113 -0.44723584 30.02688968 0.29543613 35.97216797 5.83886719 C39.98235613 10.34278745 41.41577425 13.50774126 41.34765625 19.55078125 C40.59619008 24.84481818 37.38145359 28.5801727 33.75 32.3125 C25.99474457 37.07140674 18.97561017 37.3095038 10 37 C10.33 44.26 10.66 51.52 11 59 C11.66 59 12.32 59 13 59 C13 59.66 13 60.32 13 61 C8.38 61 3.76 61 -1 61 C-0.01 59.35 0.98 57.7 2 56 C2.44060425 53.43079781 2.44060425 53.43079781 2.37231445 50.72241211 C2.37854324 49.69462143 2.38477203 48.66683075 2.39118958 47.6078949 C2.38197983 46.50881302 2.37277008 45.40973114 2.36328125 44.27734375 C2.36377975 43.13971085 2.36427826 42.00207794 2.36479187 40.82997131 C2.36245438 38.42854055 2.35274506 36.0271072 2.33618164 33.62573242 C2.31256441 29.94753151 2.31562661 26.27005448 2.32226562 22.59179688 C2.31668951 20.25780817 2.30958006 17.92382253 2.30078125 15.58984375 C2.30214836 13.93818459 2.30214836 13.93818459 2.30354309 12.25315857 C2.29401108 11.22852005 2.28447906 10.20388153 2.2746582 9.14819336 C2.27005081 8.24838242 2.26544342 7.34857147 2.26069641 6.42149353 C1.98462592 3.85719697 1.29473087 2.21081763 0 0 Z " fill="#232323" transform="translate(284,283)"/>
<path d="M0 0 C1.79392525 4.16569695 3.58530218 8.33248534 5.375 12.5 C5.64400116 13.12626282 5.91300232 13.75252563 6.19015503 14.39776611 C10.46403151 24.35378781 14.66891885 34.33637249 18.78857422 44.35742188 C21.53027661 52.84449458 21.53027661 52.84449458 27 59 C27 59.66 27 60.32 27 61 C22.71 61 18.42 61 14 61 C14.061875 60.00871094 14.12375 59.01742187 14.1875 57.99609375 C14.1875 53.5665986 12.74635501 50.07309772 11 46.0625 C10.01 43.731875 9.02 41.40125 8 39 C-0.25 38.67 -8.5 38.34 -17 38 C-17.99 41.3 -18.98 44.6 -20 48 C-20.556875 49.36125 -20.556875 49.36125 -21.125 50.75 C-22.18136792 53.46637465 -22.59827469 56.12096864 -23 59 C-22.34 59 -21.68 59 -21 59 C-21 59.66 -21 60.32 -21 61 C-23.97 61 -26.94 61 -30 61 C-30 60.34 -30 59.68 -30 59 C-29.26628174 58.34177246 -28.53256348 57.68354492 -27.77661133 57.00537109 C-23.99410514 53.35330188 -22.46584296 48.72924244 -20.57421875 43.9140625 C-20.18176468 42.93891693 -19.78931061 41.96377136 -19.38496399 40.95907593 C-18.56110216 38.9023255 -17.74369561 36.84297896 -16.93237305 34.78125 C-15.69161789 31.6354405 -14.42456171 28.5011794 -13.15429688 25.3671875 C-12.35516996 23.36261662 -11.55759146 21.35742762 -10.76171875 19.3515625 C-10.38367599 18.4190567 -10.00563324 17.4865509 -9.61613464 16.52578735 C-7.63308131 11.43174533 -6.54914958 7.47106749 -7 2 C-4.35261084 0.5393715 -3.10551666 0 0 0 Z " fill="#2C2C2C" transform="translate(265,132)"/>
<path d="M0 0 C6.93 0 13.86 0 21 0 C20.34 1.65 19.68 3.3 19 5 C19.49241575 16.81797795 25.34222922 29.0932028 29.26391602 40.17749023 C30.06944462 42.45715343 30.86789301 44.73921925 31.66601562 47.02148438 C32.18447239 48.49233683 32.70333775 49.96304533 33.22265625 51.43359375 C33.57433617 52.44153236 33.57433617 52.44153236 33.93312073 53.46983337 C35.35901739 57.47728493 37.06422229 61.21657367 39 65 C40.39035371 69.17106112 38.90230806 72.18206859 37.5625 76.1875 C37.31951172 76.93708984 37.07652344 77.68667969 36.82617188 78.45898438 C36.22534944 80.30857501 35.61370322 82.15464327 35 84 C34.34 84 33.68 84 33 84 C32.72517792 83.21676361 32.45035583 82.43352722 32.16720581 81.6265564 C29.55439353 74.18285467 26.93690938 66.74081523 24.31439018 59.30052757 C22.96684931 55.47694421 21.62101428 51.65277957 20.27929688 47.82714844 C18.98022048 44.12331244 17.67637749 40.42118433 16.36944962 36.72011185 C15.87592584 35.31998049 15.38401585 33.91927902 14.89388657 32.51795578 C9.22231095 15.32146662 9.22231095 15.32146662 0 0 Z " fill="#262626" transform="translate(67,214)"/>
<path d="M0 0 C13.2 0 26.4 0 40 0 C40 3.3 40 6.6 40 10 C37.41210938 7.70507812 37.41210938 7.70507812 34.82421875 5.41015625 C31.81043096 3.08044021 29.01351625 2.84773639 25.33203125 2.68359375 C24.52741455 2.64548584 23.72279785 2.60737793 22.89379883 2.56811523 C21.87697021 2.52501221 20.8601416 2.48190918 19.8125 2.4375 C16.574375 2.293125 13.33625 2.14875 10 2 C10 10.58 10 19.16 10 28 C14.3003125 27.8453125 14.3003125 27.8453125 18.6875 27.6875 C19.58170654 27.66260498 20.47591309 27.63770996 21.3972168 27.61206055 C26.01598233 27.39917363 29.25612614 26.99066847 33 24 C33.33 23.34 33.66 22.68 34 22 C34.66 22 35.32 22 36 22 C36 26.29 36 30.58 36 35 C35.34 35 34.68 35 34 35 C33.525625 34.360625 33.05125 33.72125 32.5625 33.0625 C31.0908635 30.71627037 31.0908635 30.71627037 28 30 C26.59335074 29.85507877 25.1818867 29.75371069 23.76953125 29.68359375 C22.96708984 29.64169922 22.16464844 29.59980469 21.33789062 29.55664062 C20.50451172 29.51732422 19.67113281 29.47800781 18.8125 29.4375 C17.96751953 29.39431641 17.12253906 29.35113281 16.25195312 29.30664062 C14.16815567 29.20068482 12.08409897 29.0998498 10 29 C10.11798252 33.11193736 10.24221059 37.22363288 10.37231445 41.33520508 C10.41571434 42.73489199 10.45738564 44.13463359 10.49731445 45.53442383 C10.55489445 47.54261495 10.61914 49.55061149 10.68359375 51.55859375 C10.72025146 52.76829834 10.75690918 53.97800293 10.79467773 55.22436523 C10.68938266 57.90705456 10.68938266 57.90705456 12 59 C24.98290444 59.95547269 24.98290444 59.95547269 37 56 C38.95983731 53.76727395 40.4196449 51.53814606 42 49 C42.33 49 42.66 49 43 49 C43 52.96 43 56.92 43 61 C28.48 61 13.96 61 -1 61 C-0.01 59.35 0.98 57.7 2 56 C2.44060425 53.43079781 2.44060425 53.43079781 2.37231445 50.72241211 C2.37854324 49.69462143 2.38477203 48.66683075 2.39118958 47.6078949 C2.38197983 46.50881302 2.37277008 45.40973114 2.36328125 44.27734375 C2.36377975 43.13971085 2.36427826 42.00207794 2.36479187 40.82997131 C2.36245438 38.42854055 2.35274506 36.0271072 2.33618164 33.62573242 C2.31256441 29.94753151 2.31562661 26.27005448 2.32226562 22.59179688 C2.31668951 20.25780817 2.30958006 17.92382253 2.30078125 15.58984375 C2.30214836 13.93818459 2.30214836 13.93818459 2.30354309 12.25315857 C2.29401108 11.22852005 2.28447906 10.20388153 2.2746582 9.14819336 C2.27005081 8.24838242 2.26544342 7.34857147 2.26069641 6.42149353 C2.10174693 3.62198722 2.10174693 3.62198722 0 0 Z " fill="#222222" transform="translate(332,283)"/>
<path d="M0 0 C13.53 0 27.06 0 41 0 C41 3.63 41 7.26 41 11 C40.29875 10.236875 39.5975 9.47375 38.875 8.6875 C33.01974347 3.21410802 27.80635334 2.51651738 20.125 2.3125 C17.11375 2.209375 14.1025 2.10625 11 2 C11 10.58 11 19.16 11 28 C13.68125 27.896875 16.3625 27.79375 19.125 27.6875 C19.95789551 27.66260498 20.79079102 27.63770996 21.64892578 27.61206055 C27.38555076 27.33077292 31.8021461 26.1978539 36 22 C36 26.29 36 30.58 36 35 C33.525 33.02 33.525 33.02 31 31 C28.76352369 29.88176185 27.35108471 29.80603939 24.8671875 29.68359375 C23.65869141 29.62075195 23.65869141 29.62075195 22.42578125 29.55664062 C21.58402344 29.51732422 20.74226563 29.47800781 19.875 29.4375 C19.02550781 29.39431641 18.17601562 29.35113281 17.30078125 29.30664062 C15.20071777 29.20045764 13.10038052 29.09971503 11 29 C11.11798252 33.11193736 11.24221059 37.22363288 11.37231445 41.33520508 C11.41571434 42.73489199 11.45738564 44.13463359 11.49731445 45.53442383 C11.55489445 47.54261495 11.61914 49.55061149 11.68359375 51.55859375 C11.72025146 52.76829834 11.75690918 53.97800293 11.79467773 55.22436523 C11.68938266 57.90705456 11.68938266 57.90705456 13 59 C25.97122031 59.93996693 25.97122031 59.93996693 38 56 C39.65457147 54.07619353 40.75690159 52.23757714 42 50 C42.33 50 42.66 50 43 50 C43 53.63 43 57.26 43 61 C28.81 61 14.62 61 0 61 C0.99 59.02 1.98 57.04 3 55 C3.44315277 52.40565884 3.44315277 52.40565884 3.38818359 49.77661133 C3.39764008 48.78570999 3.40709656 47.79480865 3.4168396 46.77388 C3.41076691 45.72056992 3.40469421 44.66725983 3.3984375 43.58203125 C3.40274277 41.94073494 3.40274277 41.94073494 3.40713501 40.26628113 C3.40917134 37.96079997 3.40367177 35.65530137 3.39111328 33.34985352 C3.37500786 29.81422593 3.39100113 26.27973351 3.41015625 22.74414062 C3.40817465 20.50260164 3.4043327 18.26106336 3.3984375 16.01953125 C3.40754654 14.43045708 3.40754654 14.43045708 3.4168396 12.8092804 C3.40265488 11.33711311 3.40265488 11.33711311 3.38818359 9.83520508 C3.38579681 8.97171951 3.38341003 8.10823395 3.38095093 7.21858215 C2.9199128 4.53358814 1.98474106 3.77905151 0 2 C0 1.34 0 0.68 0 0 Z " fill="#282828" transform="translate(150,132)"/>
<path d="M0 0 C3.12490775 -0.4990347 5.88519301 -0.62233278 9 0 C11.84816885 2.17546284 13.68010812 4.93202818 15.6875 7.875 C16.8923863 9.53186327 18.09814085 11.18809542 19.3046875 12.84375 C20.21686035 14.12572266 20.21686035 14.12572266 21.14746094 15.43359375 C24.0864583 19.50511988 27.20370549 23.43261706 30.3125 27.375 C35.63883208 34.17834192 40.83069044 41.07701254 46 48 C46.07427668 42.3949675 46.12866208 36.79022289 46.16479492 31.18481445 C46.17986128 29.27883919 46.20031824 27.37289848 46.22631836 25.46704102 C46.26279642 22.72403424 46.27974792 19.98148672 46.29296875 17.23828125 C46.30845261 16.38913651 46.32393646 15.53999176 46.33988953 14.66511536 C46.34122348 9.95286115 46.08932841 6.81694717 43 3 C42.34 2.67 41.68 2.34 41 2 C41 1.34 41 0.68 41 0 C44.63 0 48.26 0 52 0 C52 0.66 52 1.32 52 2 C51.01 2.66 50.02 3.32 49 4 C48.52224886 6.54138301 48.52224886 6.54138301 48.56762695 9.55126953 C48.54783279 10.71232208 48.52803864 11.87337463 48.50764465 13.0696106 C48.50125473 14.32796722 48.49486481 15.58632385 48.48828125 16.8828125 C48.47033005 18.16735321 48.45237885 19.45189392 48.43388367 20.77536011 C48.38631108 24.19149661 48.35654927 27.60756676 48.33044434 31.02392578 C48.30067498 34.50957349 48.25413238 37.99499231 48.20898438 41.48046875 C48.1228692 48.32018228 48.05556074 55.15997195 48 62 C42.64807104 56.72676767 42.64807104 56.72676767 40.45703125 53.90625 C39.81399048 53.08338501 39.81399048 53.08338501 39.15795898 52.24389648 C38.71395752 51.66841064 38.26995605 51.0929248 37.8125 50.5 C37.3369165 49.88906494 36.86133301 49.27812988 36.37133789 48.64868164 C34.91011547 46.76892907 33.45424657 44.88515285 32 43 C31.56461914 42.43651855 31.12923828 41.87303711 30.68066406 41.29248047 C28.19880371 38.07869137 25.72582641 34.85818784 23.25585938 31.63525391 C21.95014038 29.93507781 20.63971799 28.23861673 19.328125 26.54296875 C18.88605713 25.97070557 18.44398926 25.39844238 17.98852539 24.80883789 C16.76772894 23.22883542 15.54600633 21.64954867 14.32421875 20.0703125 C12.63216668 17.8350975 10.9797378 15.59102615 9.35473633 13.30810547 C8.69010124 12.37513138 8.69010124 12.37513138 8.01203918 11.42330933 C7.67806625 10.95361725 7.34409332 10.48392517 7 10 C6.9505019 16.03229582 6.91423375 22.06447296 6.89013672 28.09692383 C6.88008931 30.14837707 6.86644908 32.19981604 6.84912109 34.2512207 C6.82481754 37.20267262 6.81350418 40.1539349 6.8046875 43.10546875 C6.79436493 44.02023483 6.78404236 44.93500092 6.77340698 45.87748718 C6.7602479 52.17726046 6.7602479 52.17726046 9 58 C9.99 58.99 10.98 59.98 12 61 C8.37 61 4.74 61 1 61 C1.48823242 60.2462207 1.97646484 59.49244141 2.47949219 58.71582031 C4.86357471 53.91226024 4.38942368 48.79186166 4.328125 43.546875 C4.32625183 42.45030579 4.32437866 41.35373657 4.32244873 40.22393799 C4.31574368 37.91423486 4.30186011 35.60454278 4.28125 33.29492188 C4.24998758 29.74859131 4.24026612 26.20270496 4.234375 22.65625 C4.22520897 20.41145288 4.21483448 18.1666603 4.203125 15.921875 C4.19887512 14.85733093 4.19462524 13.79278687 4.19024658 12.69598389 C4.18063904 11.7144635 4.17103149 10.73294312 4.16113281 9.72167969 C4.15430481 8.85597351 4.14747681 7.99026733 4.14044189 7.09832764 C4.13186222 4.941654 4.13186222 4.941654 3 3 C2.01 2.67 1.02 2.34 0 2 C0 1.34 0 0.68 0 0 Z " fill="#282828" transform="translate(295,132)"/>
<path d="M0 0 C13.76470588 0 13.76470588 0 18.50390625 4.39453125 C22.99436176 9.44789286 23.34670054 14.00463914 23.2890625 20.52734375 C22.73211849 25.29147292 19.621462 29.00835748 16 32 C13 33 13 33 0 33 C0 22.11 0 11.22 0 0 Z " fill="#EFEFEF" transform="translate(294,285)"/>
<path d="M0 0 C13.53 0 27.06 0 41 0 C41 3.3 41 6.6 41 10 C40.236875 9.21625 39.47375 8.4325 38.6875 7.625 C34.91542653 3.94064917 32.85378786 2.75758413 27.67578125 2.5859375 C26.74934814 2.55032715 25.82291504 2.5147168 24.8684082 2.47802734 C23.6949585 2.44402832 22.52150879 2.4100293 21.3125 2.375 C17.579375 2.25125 13.84625 2.1275 10 2 C10 10.25 10 18.5 10 27 C12.701875 26.87625 15.40375 26.7525 18.1875 26.625 C19.02949951 26.59100098 19.87149902 26.55700195 20.73901367 26.52197266 C26.83341085 26.20178681 30.53944607 25.46055393 35 21 C35 25.29 35 29.58 35 34 C34.34 34 33.68 34 33 34 C32.49984375 33.35546875 31.9996875 32.7109375 31.484375 32.046875 C27.71440438 28.94079858 23.99228419 29.32837164 19.25 29.25 C16.1975 29.1675 13.145 29.085 10 29 C10.33 38.9 10.66 48.8 11 59 C11.66 59 12.32 59 13 59 C13 59.66 13 60.32 13 61 C8.38 61 3.76 61 -1 61 C-0.01 59.35 0.98 57.7 2 56 C2.44060425 53.43079781 2.44060425 53.43079781 2.37231445 50.72241211 C2.37854324 49.69462143 2.38477203 48.66683075 2.39118958 47.6078949 C2.38197983 46.50881302 2.37277008 45.40973114 2.36328125 44.27734375 C2.36377975 43.13971085 2.36427826 42.00207794 2.36479187 40.82997131 C2.36245438 38.42854055 2.35274506 36.0271072 2.33618164 33.62573242 C2.31256441 29.94753151 2.31562661 26.27005448 2.32226562 22.59179688 C2.31668951 20.25780817 2.30958006 17.92382253 2.30078125 15.58984375 C2.30214836 13.93818459 2.30214836 13.93818459 2.30354309 12.25315857 C2.29401108 11.22852005 2.28447906 10.20388153 2.2746582 9.14819336 C2.27005081 8.24838242 2.26544342 7.34857147 2.26069641 6.42149353 C2.10174693 3.62198722 2.10174693 3.62198722 0 0 Z " fill="#232323" transform="translate(202,132)"/>
<path d="M0 0 C4.62 0 9.24 0 14 0 C14 0.66 14 1.32 14 2 C13.51202438 2.42698685 13.02404877 2.85397369 12.52128601 3.29389954 C10.4147381 5.65636284 10.63751327 7.16439696 10.65942383 10.29760742 C10.65976372 11.91894844 10.65976372 11.91894844 10.66011047 13.57304382 C10.67559433 14.73874405 10.69107819 15.90444427 10.70703125 17.10546875 C10.71127609 18.29981033 10.71552094 19.49415192 10.71989441 20.72468567 C10.73671041 24.54585144 10.77436907 28.36649316 10.8125 32.1875 C10.82754301 34.77538302 10.84123208 37.36327429 10.85351562 39.95117188 C10.88662355 46.30096058 10.93685238 52.65044286 11 59 C14.39678803 58.91879294 17.79182382 58.80597981 21.1875 58.6875 C22.14720703 58.66494141 23.10691406 58.64238281 24.09570312 58.61914062 C31.04850539 58.39455397 31.04850539 58.39455397 37 55 C38.32793606 52.93299345 38.32793606 52.93299345 39 51 C39.66 51 40.32 51 41 51 C40.505 55.95 40.505 55.95 40 61 C26.8 61 13.6 61 0 61 C0 60.34 0 59.68 0 59 C0.66 59 1.32 59 2 59 C2 40.19 2 21.38 2 2 C1.34 2 0.68 2 0 2 C0 1.34 0 0.68 0 0 Z " fill="#272727" transform="translate(383,283)"/>
<path d="M0 0 C13.91891892 0 13.91891892 0 19 4 C21.96886864 7.44771842 22.48230308 10.46486387 22.28515625 15.0078125 C21.68378406 19.20917985 20.20112059 22.07740012 16.84375 24.65625 C13.26401827 26.34777159 10.62801675 26.29798178 6.6875 26.1875 C3.3771875 26.0946875 3.3771875 26.0946875 0 26 C0 17.42 0 8.84 0 0 Z " fill="#EEEEEE" transform="translate(241,285)"/>
<path d="M0 0 C2.97 0 5.94 0 9 0 C9.33 19.14 9.66 38.28 10 58 C10.66 58 11.32 58 12 58 C12 58.66 12 59.32 12 60 C7.38 60 2.76 60 -2 60 C-1.67 59.34 -1.34 58.68 -1 58 C-0.34 58 0.32 58 1 58 C1.0253109 50.22209364 1.04285035 42.44419786 1.05493164 34.66625977 C1.059967 32.01912031 1.06679563 29.37198365 1.07543945 26.72485352 C1.08753979 22.92463493 1.09323622 19.12445305 1.09765625 15.32421875 C1.10281754 14.13664474 1.10797882 12.94907074 1.11329651 11.72550964 C1.11340981 10.0741375 1.11340981 10.0741375 1.11352539 8.3894043 C1.115746 7.41899704 1.11796661 6.44858978 1.12025452 5.44877625 C1.10336633 2.86124019 1.10336633 2.86124019 0 0 Z " fill="#222222" transform="translate(232,284)"/>
<path d="M0 0 C2.31 0 4.62 0 7 0 C7.00586624 0.67794113 7.01173248 1.35588226 7.01777649 2.05436707 C7.08171579 9.11114535 7.16613745 16.16746781 7.26245117 23.22387695 C7.29570325 25.85727936 7.32373424 28.49075309 7.34643555 31.12426758 C7.37997529 34.90997711 7.4322932 38.69503289 7.48828125 42.48046875 C7.49467117 43.65772018 7.5010611 44.83497162 7.50764465 46.04789734 C7.53733589 47.69904289 7.53733589 47.69904289 7.56762695 49.38354492 C7.57873001 50.34951096 7.58983307 51.31547699 7.60127258 52.31071472 C7.90940463 55.5727747 7.90940463 55.5727747 11 60 C6.38 60 1.76 60 -3 60 C-3 59.34 -3 58.68 -3 58 C-2.34 58 -1.68 58 -1 58 C-0.67 38.86 -0.34 19.72 0 0 Z " fill="#222222" transform="translate(118,133)"/>
<path d="M0 0 C2.34688889 2.90061128 3.857427 5.6817303 5.26171875 9.1328125 C5.65810547 10.10347656 6.05449219 11.07414063 6.46289062 12.07421875 C6.86701172 13.08097656 7.27113281 14.08773437 7.6875 15.125 C8.10322266 16.13949219 8.51894531 17.15398437 8.94726562 18.19921875 C12 25.72829433 12 25.72829433 12 28 C4.41 28 -3.18 28 -11 28 C-7.625 17.875 -7.625 17.875 -5.95703125 13.96484375 C-5.60576172 13.13662109 -5.25449219 12.30839844 -4.89257812 11.45507812 C-4.53615234 10.62427734 -4.17972656 9.79347656 -3.8125 8.9375 C-3.44447266 8.07189453 -3.07644531 7.20628906 -2.69726562 6.31445312 C-1.80127408 4.20829117 -0.90215345 2.10352808 0 0 Z " fill="#E9E9E9" transform="translate(260,141)"/>
<path d="M0 0 C3.79139846 -0.11771717 7.58231735 -0.18775198 11.375 -0.25 C12.96634766 -0.30027344 12.96634766 -0.30027344 14.58984375 -0.3515625 C22.38722113 -0.44723584 30.02688968 0.29543613 35.97216797 5.83886719 C39.98235613 10.34278745 41.41577425 13.50774126 41.34765625 19.55078125 C40.59619008 24.84481818 37.38145359 28.5801727 33.75 32.3125 C25.80439329 37.18821321 19.11754558 37.28046748 10 36 C10 35.67 10 35.34 10 35 C10.88042969 34.96261719 11.76085937 34.92523438 12.66796875 34.88671875 C14.41013672 34.78810547 14.41013672 34.78810547 16.1875 34.6875 C17.33605469 34.62949219 18.48460937 34.57148438 19.66796875 34.51171875 C24.49830865 33.76989633 27.07235645 32.02792934 30.3125 28.4375 C32.83675827 23.29549242 32.85954029 18.4844441 31.4921875 12.94140625 C29.90093697 8.6889264 27.70465819 6.48697109 24 4 C16.2204203 1.98623822 8.00690172 1.66791652 0 2 C0 1.34 0 0.68 0 0 Z " fill="#353535" transform="translate(284,283)"/>
<path d="M0 0 C4.38624759 -0.35089981 7.90081466 -0.37843139 11.53515625 2.359375 C15.00226094 6.24253226 16.8663263 11.30702338 19 16 C20.02893183 18.19351886 21.07018403 20.38131019 22.125 22.5625 C22.58132813 23.53316406 23.03765625 24.50382812 23.5078125 25.50390625 C25.06014275 28.10060528 26.47024974 29.38769136 29 31 C28 32 28 32 24.75 32.3125 C20.17059025 31.93088252 19.17904316 31.28127885 16 28 C14.20875889 24.62665687 12.82599282 21.11733241 11.4375 17.5625 C7.59611851 7.43820909 7.59611851 7.43820909 0 0 Z " fill="#2E2E2E" transform="translate(251,313)"/>
<path d="M0 0 C4.62 0 9.24 0 14 0 C13.236875 0.7425 12.47375 1.485 11.6875 2.25 C7.9444878 6.080059 5.7692766 8.99530699 4.30859375 14.171875 C4.00824219 15.21432373 3.70789063 16.25677246 3.3984375 17.33081055 C3.08132812 18.45914307 2.76421875 19.58747559 2.4375 20.75 C1.74059612 23.16863695 1.04126516 25.58657554 0.33984375 28.00390625 C0.06441238 28.95599724 0.06441238 28.95599724 -0.21658325 29.92732239 C-2.52860271 37.88307061 -5.01598631 45.78413359 -7.5 53.6875 C-7.94996421 55.12141518 -8.39991568 56.55533436 -8.84985352 57.98925781 C-9.89782242 61.32682814 -10.94815798 64.663648 -12 68 C-12.66 67.67 -13.32 67.34 -14 67 C-11.38457432 56.7919143 -8.136816 46.78564877 -4.9375 36.75 C-4.12146445 34.18566205 -3.30609017 31.62111772 -2.49183655 29.05621338 C-1.98876726 27.47199117 -1.48463495 25.88810598 -0.97923279 24.30462646 C2.11942869 15.36526551 2.11942869 15.36526551 3.125 6.0625 C3.09792969 4.90427734 3.09792969 4.90427734 3.0703125 3.72265625 C3.04710937 3.15417969 3.02390625 2.58570313 3 2 C2.01 1.67 1.02 1.34 0 1 C0 0.67 0 0.34 0 0 Z " fill="#5D5D5D" transform="translate(163,214)"/>
<path d="M0 0 C3.3 0 6.6 0 10 0 C9.34 1.32 8.68 2.64 8 4 C7.79775394 6.969977 7.69910159 9.85376215 7.69140625 12.82421875 C7.66623212 14.59310205 7.64083432 16.36198218 7.61523438 18.13085938 C7.58659775 20.90420604 7.56256805 23.67749728 7.54370117 26.45092773 C7.52186939 29.13815659 7.4824051 31.82472348 7.44140625 34.51171875 C7.44129044 35.32767014 7.44117462 36.14362152 7.4410553 36.98429871 C7.32271413 43.96866149 6.13805196 50.34188134 1.6875 55.875 C-1.08112923 58.06414869 -3.77719072 59.57596799 -7 61 C-7.66 60.34 -8.32 59.68 -9 59 C-8.37351563 58.84144531 -7.74703125 58.68289063 -7.1015625 58.51953125 C-1.99524185 57.25903776 -1.99524185 57.25903776 1.4375 53.625 C1.623125 52.75875 1.80875 51.8925 2 51 C2.33467285 50.30849854 2.6693457 49.61699707 3.01416016 48.90454102 C4.3803164 44.87948881 4.32470063 41.12615957 4.3359375 36.90234375 C4.3425943 36.03106339 4.3492511 35.15978302 4.35610962 34.26210022 C4.36620786 32.42565007 4.37092752 30.58916343 4.37060547 28.75268555 C4.37499104 25.94323675 4.41137319 23.13534429 4.44921875 20.32617188 C4.45508503 18.53906786 4.45905569 16.7519564 4.4609375 14.96484375 C4.47530853 14.12622299 4.48967957 13.28760223 4.50448608 12.42356873 C4.51494632 7.5798082 4.51494632 7.5798082 1.97119141 3.56469727 C1.32069824 3.04834717 0.67020508 2.53199707 0 2 C0 1.34 0 0.68 0 0 Z " fill="#4F4F4F" transform="translate(213,283)"/>
<path d="M0 0 C1.19625 -0.00515625 2.3925 -0.0103125 3.625 -0.015625 C6.90573746 0.24258119 9.01569965 0.9576253 12 2.25 C14.4320759 2.69252057 14.4320759 2.69252057 16.8125 2.875 C18.194375 2.99875 19.57625 3.1225 21 3.25 C21 9.19 21 15.13 21 21.25 C18.81674759 19.06674759 18.05815786 17.30591874 16.8125 14.5 C14.40864345 9.57102411 11.62370522 6.21925146 7 3.25 C1.76655404 1.50551801 -3.87957435 1.57146379 -9.125 3.25 C-9.74375 3.58 -10.3625 3.91 -11 4.25 C-11.33 3.59 -11.66 2.93 -12 2.25 C-7.89003576 0.28842616 -4.53353543 -0.0195411 0 0 Z " fill="#363636" transform="translate(73,67.75)"/>
<path d="M0 0 C13.53 0 27.06 0 41 0 C41 3.63 41 7.26 41 11 C40.29875 10.236875 39.5975 9.47375 38.875 8.6875 C33.94779617 4.08163555 29.76530783 2.63640062 23.0703125 2.48828125 C21.78125 2.45283203 20.4921875 2.41738281 19.1640625 2.38085938 C17.81771358 2.35776507 16.47135928 2.33498245 15.125 2.3125 C13.75517629 2.27929117 12.38538308 2.24479825 11.015625 2.20898438 C7.6771659 2.12669841 4.33896315 2.05748072 1 2 C0.67 1.34 0.34 0.68 0 0 Z " fill="#616161" transform="translate(150,132)"/>
<path d="M0 0 C13.2 0 26.4 0 40 0 C40 3.3 40 6.6 40 10 C37.41210938 7.70507812 37.41210938 7.70507812 34.82421875 5.41015625 C31.19733715 2.60650688 27.56915098 2.81427872 23.14453125 2.68359375 C22.48289474 2.66281265 21.82125824 2.64203156 21.13957214 2.62062073 C19.03065148 2.55535273 16.92160865 2.49634656 14.8125 2.4375 C13.38084685 2.39429311 11.94920596 2.35067812 10.51757812 2.30664062 C7.01184846 2.19969494 3.50598214 2.09836359 0 2 C0 1.34 0 0.68 0 0 Z " fill="#5C5C5C" transform="translate(332,283)"/>
<path d="M0 0 C13.53 0 27.06 0 41 0 C41 3.3 41 6.6 41 10 C40.236875 9.21625 39.47375 8.4325 38.6875 7.625 C35.04801263 4.07015187 33.03130262 2.76289158 28.02734375 2.62109375 C27.04443359 2.58693359 26.06152344 2.55277344 25.04882812 2.51757812 C24.02208984 2.49115234 22.99535156 2.46472656 21.9375 2.4375 C14.58278545 2.21462986 7.31252527 1.84122822 0 1 C0 0.67 0 0.34 0 0 Z " fill="#5E5E5E" transform="translate(202,132)"/>
<path d="M0 0 C13.86 0 27.72 0 42 0 C42 3.3 42 6.6 42 10 C41.443125 9.21625 40.88625 8.4325 40.3125 7.625 C36.98642233 3.84945238 34.33219511 3.1385026 29.35546875 2.62109375 C27.96654499 2.55142201 26.5771541 2.49064923 25.1875 2.4375 C23.68226979 2.36503635 22.17706193 2.2921072 20.671875 2.21875 C19.90423828 2.18394531 19.13660156 2.14914063 18.34570312 2.11328125 C14.54035605 1.92950928 10.73931126 1.68251423 6.9375 1.4375 C5.59245793 1.35270556 4.2474068 1.26805477 2.90234375 1.18359375 C1.94457031 1.12300781 0.98679687 1.06242188 0 1 C0 0.67 0 0.34 0 0 Z " fill="#595959" transform="translate(102,132)"/>
<path d="M0 0 C0.33 0 0.66 0 1 0 C1 4.29 1 8.58 1 13 C0.34 13 -0.32 13 -1 13 C-1.50015625 12.35546875 -2.0003125 11.7109375 -2.515625 11.046875 C-6.28509888 7.94120784 -10.00240795 8.3271396 -14.75 8.25 C-15.63816406 8.22035156 -16.52632812 8.19070312 -17.44140625 8.16015625 C-19.62769449 8.08963082 -21.81292768 8.03685363 -24 8 C-24 7.34 -24 6.68 -24 6 C-22.24623047 5.92652344 -22.24623047 5.92652344 -20.45703125 5.8515625 C-18.90883196 5.77649829 -17.36065599 5.70095205 -15.8125 5.625 C-15.04357422 5.5940625 -14.27464844 5.563125 -13.48242188 5.53125 C-9.31335803 5.31653427 -5.72896268 5.06462341 -2 3 C-1.34 2.01 -0.68 1.02 0 0 Z " fill="#434343" transform="translate(236,153)"/>
<path d="M0 0 C2 4 2 4 0.91015625 7.3359375 C0.6177002 8.03170898 0.32524414 8.72748047 0.02392578 9.44433594 C-1.22269146 12.555826 -2.20387861 15.71092249 -3.19140625 18.9140625 C-3.57876953 20.16960937 -3.96613281 21.42515625 -4.36523438 22.71875 C-4.76444361 24.02079633 -5.1635312 25.32287997 -5.5625 26.625 C-6.35445142 29.20083554 -7.14787041 31.77621412 -7.94140625 34.3515625 C-8.28888916 35.48416504 -8.63637207 36.61676758 -8.99438477 37.78369141 C-9.95910059 40.8691894 -10.96722518 43.93668976 -12 47 C-12.66 46.34 -13.32 45.68 -14 45 C-9.38 30.15 -4.76 15.3 0 0 Z " fill="#5C5C5C" transform="translate(120,233)"/>
<path d="M0 0 C0.66 0 1.32 0 2 0 C1.67 3.3 1.34 6.6 1 10 C-12.86 9.505 -12.86 9.505 -27 9 C-27 8.67 -27 8.34 -27 8 C-26.42032471 7.98541748 -25.84064941 7.97083496 -25.2434082 7.95581055 C-22.59912447 7.88101472 -19.95605998 7.78446102 -17.3125 7.6875 C-15.94448242 7.65366211 -15.94448242 7.65366211 -14.54882812 7.61914062 C-9.62439334 7.42216323 -5.96062865 7.25793647 -2 4 C-0.67206394 1.93299345 -0.67206394 1.93299345 0 0 Z " fill="#4B4B4B" transform="translate(422,334)"/>
<path d="M0 0 C0.33 0 0.66 0 1 0 C1 3.96 1 7.92 1 12 C-8.1796875 12.1953125 -8.1796875 12.1953125 -11 12 C-11.66 11.34 -12.32 10.68 -13 10 C-11.783125 9.649375 -10.56625 9.29875 -9.3125 8.9375 C-4.38475654 7.13765044 -2.72004904 4.36856361 0 0 Z " fill="#383838" transform="translate(374,332)"/>
<path d="M0 0 C1.29940815 4.20183506 0.33595281 6.31975825 -1.375 10.375 C-3.15385365 14.61841067 -4.40618828 18.42903072 -5 23 C-4.34 23 -3.68 23 -3 23 C-3 23.66 -3 24.32 -3 25 C-5.97 25 -8.94 25 -12 25 C-12 24.34 -12 23.68 -12 23 C-11.25363281 22.32582031 -10.50726563 21.65164062 -9.73828125 20.95703125 C-6.15317193 17.51355588 -4.83161684 13.28594598 -3.1875 8.6875 C-2.87619141 7.85154297 -2.56488281 7.01558594 -2.24414062 6.15429688 C-1.48385331 4.10736948 -0.74021966 2.05426956 0 0 Z " fill="#3A3A3A" transform="translate(247,168)"/>
<path d="M0 0 C0.66 0 1.32 0 2 0 C2 4.29 2 8.58 2 13 C1.34 13 0.68 13 0 13 C-0.474375 12.360625 -0.94875 11.72125 -1.4375 11.0625 C-2.9091365 8.71627037 -2.9091365 8.71627037 -6 8 C-6 7.01 -6 6.02 -6 5 C-4.36368108 3.95107762 -2.69514137 2.95093297 -1 2 C-0.67 1.34 -0.34 0.68 0 0 Z " fill="#3E3E3E" transform="translate(366,305)"/>
<path d="M0 0 C4.62 0 9.24 0 14 0 C11 3 8 6 5 9 C4.731875 7.865625 4.46375 6.73125 4.1875 5.5625 C3.795625 4.386875 3.40375 3.21125 3 2 C2.01 1.67 1.02 1.34 0 1 C0 0.67 0 0.34 0 0 Z " fill="#2E2E2E" transform="translate(163,214)"/>
<path d="M0 0 C3.96 0 7.92 0 12 0 C13.1577506 3.47325181 13.06866652 6.36067448 13 10 C12.34 9.2575 11.68 8.515 11 7.75 C7.82479426 4.53819246 4.08683153 2.81524279 0 1 C0 0.67 0 0.34 0 0 Z " fill="#2F2F2F" transform="translate(178,133)"/>
<path d="M0 0 C3.96 0 7.92 0 12 0 C12 2.97 12 5.94 12 9 C10.948125 8.05125 9.89625 7.1025 8.8125 6.125 C6.01467448 3.71386581 3.58153332 2.08531313 0 1 C0 0.67 0 0.34 0 0 Z " fill="#292929" transform="translate(360,284)"/>
<path d="M0 0 C3.63 0 7.26 0 11 0 C11 0.66 11 1.32 11 2 C10.01 2.66 9.02 3.32 8 4 C7.27617533 6.05925139 7.27617533 6.05925139 7 8 C6.34 8 5.68 8 5 8 C3.98133771 6.34467377 2.98189187 4.67739862 2 3 C1.34 2.67 0.68 2.34 0 2 C0 1.34 0 0.68 0 0 Z " fill="#3A3A3A" transform="translate(336,132)"/>
<path d="M0 0 C3.63 0 7.26 0 11 0 C11 2.97 11 5.94 11 9 C10.2265625 7.8553125 10.2265625 7.8553125 9.4375 6.6875 C6.44152356 3.38424393 4.14287486 2.51374274 0 1 C0 0.67 0 0.34 0 0 Z " fill="#2C2C2C" transform="translate(133,133)"/>
<path d="M0 0 C0.66 0.99 1.32 1.98 2 3 C3.32381517 4.67423683 4.65576661 6.34211215 6 8 C2.37 8 -1.26 8 -5 8 C-4.01 6.02 -3.02 4.04 -2 2 C-1.34 2 -0.68 2 0 2 C0 1.34 0 0.68 0 0 Z " fill="#2E2E2E" transform="translate(301,185)"/>
<path d="M0 0 C3.63 0 7.26 0 11 0 C11.33 2.97 11.66 5.94 12 9 C11.319375 8.236875 10.63875 7.47375 9.9375 6.6875 C6.64101475 3.67156669 4.13693165 2.54120983 0 1 C0 0.67 0 0.34 0 0 Z " fill="#2D2D2D" transform="translate(231,133)"/>
<path d="M0 0 C1.07421875 1.765625 1.07421875 1.765625 2 4 C1.11513204 6.79431988 0.15470919 9.32492371 -1 12 C-1.57030476 13.49705001 -2.13318581 14.99695575 -2.6875 16.5 C-3.120625 17.655 -3.55375 18.81 -4 20 C-4.97812873 16.94371936 -5.00835683 15.14722553 -4.00390625 12.109375 C-3.77509766 11.40039062 -3.54628906 10.69140625 -3.31054688 9.9609375 C-3.06369141 9.23132813 -2.81683594 8.50171875 -2.5625 7.75 C-2.19801758 6.63238281 -2.19801758 6.63238281 -1.82617188 5.4921875 C-1.22667019 3.65841765 -0.61455513 1.82877996 0 0 Z " fill="#565656" transform="translate(120,233)"/>
<path d="M0 0 C0.66 0.33 1.32 0.66 2 1 C1 4 1 4 -0.875 5.1875 C-3 6 -3 6 -6 6 C-6.33 5.01 -6.66 4.02 -7 3 C-4.69631264 1.93347808 -2.35981813 0.93578995 0 0 Z " fill="#444444" transform="translate(85,182)"/>
<path d="M0 0 C3.4375 0.8125 3.4375 0.8125 7 2 C7.33 2.99 7.66 3.98 8 5 C4.7 4.01 1.4 3.02 -2 2 C-1.34 1.34 -0.68 0.68 0 0 Z " fill="#3D3D3D" transform="translate(50,183)"/>
</svg>
